<?xml version="1.0" encoding="UTF-8"?>
<svg version="1.1" xmlns="http://www.w3.org/2000/svg" width="2262" height="827">
<path d="M0 0 C7.74006103 5.84804611 12.88082492 12.53404805 15.375 21.875 C15.58060547 22.60162842 15.78621094 23.32825684 15.99804688 24.0769043 C17.53009273 29.64835742 18.6925389 35.27144804 19.8125 40.9375 C21.77987075 50.80319794 24.19849308 61.05485072 31.8125 68.125 C36.67521132 70.87747811 41.27445391 72.15718063 46.8125 71.125 C53.25938615 68.9957532 57.23058229 66.43016681 60.67211914 60.56005859 C62.85688426 55.89492322 63.85117539 50.9506117 64.9375 45.9375 C65.194104 44.82342773 65.45070801 43.70935547 65.71508789 42.56152344 C66.74411919 38.07251801 67.74126895 33.58089009 68.61328125 29.05859375 C71.18065161 16.22174195 77.33513402 4.67591875 88.1640625 -2.89453125 C93.209046 -5.89522049 99.15946294 -5.37845114 104.8125 -4.875 C107.88887977 -4.01527097 110.22917895 -2.7379178 112.8125 -0.875 C113.39386719 -0.45863281 113.97523438 -0.04226562 114.57421875 0.38671875 C122.71603866 7.35758029 126.46686342 19.14379456 130.77734375 28.66796875 C131.29917236 29.81483154 131.82100098 30.96169434 132.35864258 32.14331055 C133.39106859 34.42001185 134.41347987 36.70128809 135.42456055 38.98754883 C140.34969971 49.93101554 140.34969971 49.93101554 148.8125 58.125 C152.91821432 58.76366667 154.39604907 58.42471436 157.80859375 55.96875 C160.76474518 53.3792034 162.38083803 50.76766982 164.0625 47.1875 C164.34279053 46.60339355 164.62308105 46.01928711 164.91186523 45.41748047 C166.76775438 41.50903852 168.51496567 37.55235916 170.26953125 33.59765625 C170.70040039 32.6327124 171.13126953 31.66776855 171.57519531 30.67358398 C172.42254363 28.76768689 173.25965886 26.85719715 174.08496094 24.94165039 C176.69852681 19.0292285 179.77628883 14.15653408 183.8125 9.125 C184.39 8.25875 184.9675 7.3925 185.5625 6.5 C191.40598461 0.33187736 199.6967904 -3.82588545 208.1875 -4.1875 C216.82577295 -3.89907686 221.87530966 -0.39112541 228.3203125 5.1875 C235.49090176 13.63935442 238.44210675 23.53904264 241.3125 34.0625 C246.45296644 53.66396507 246.45296644 53.66396507 259.8125 68.125 C264.83233889 70.48125091 269.72157322 71.10920216 275.08203125 69.40234375 C282.53958035 66.34759312 286.73800721 62.27399476 289.9362793 54.90063477 C291.6484959 49.47678675 291.60876958 43.83502695 291.8125 38.1875 C292.19478471 27.62407392 292.78802853 18.23985111 300.1875 10.125 C305.83357309 5.07325039 311.40796858 4.66659765 318.78515625 4.8125 C329.43228295 5.91155824 338.10007034 13.60710594 344.80078125 21.453125 C358.64540558 39.84093673 363.77555167 61.47568215 364.48046875 84.13671875 C364.52119003 85.41374664 364.56191132 86.69077454 364.60386658 88.00650024 C365.09123998 105.7376134 364.46128555 123.47268739 363.95404053 141.19702148 C363.82015414 145.94497397 363.6967259 150.69319899 363.57226562 155.44140625 C363.32891061 164.66955611 363.07450096 173.89736193 362.8125 183.125 C364.22218803 183.11725052 364.22218803 183.11725052 365.66035461 183.10934448 C367.52677864 183.10331711 367.52677864 183.10331711 369.4309082 183.09716797 C370.65945023 183.09200165 371.88799225 183.08683533 373.15376282 183.08151245 C415.75802451 183.58790436 461.79312617 198.78380744 498.203125 220.56640625 C500.3718221 221.86178071 502.53565897 223.03536894 504.8125 224.125 C504.4825 223.465 504.1525 222.805 503.8125 222.125 C502.87473055 215.56061382 503.80623009 212.49487416 507.6875 207.0625 C509.8671875 204.21484375 509.8671875 204.21484375 511.8125 202.125 C512.4725 202.125 513.1325 202.125 513.8125 202.125 C514.06 201.3928125 514.3075 200.660625 514.5625 199.90625 C515.93827351 196.84515394 517.49568086 195.04111139 519.8125 192.625 C523.72159987 188.40516087 527.26102011 184.03024239 530.72412109 179.43994141 C534.90552469 173.93120939 539.32722338 168.63275301 543.75366211 163.3203125 C547.87488427 158.34460049 551.71205423 153.26978261 555.359375 147.93359375 C555.83890625 147.33675781 556.3184375 146.73992187 556.8125 146.125 C557.4725 146.125 558.1325 146.125 558.8125 146.125 C559.039375 145.361875 559.26625 144.59875 559.5 143.8125 C561.1467405 140.44060279 562.37128802 139.57795617 565.8125 138.125 C569.87254538 137.60826695 572.07448077 137.72390259 575.6875 139.6875 C576.71875 140.491875 577.75 141.29625 578.8125 142.125 C579.59625 142.70378906 580.38 143.28257812 581.1875 143.87890625 C585.94173346 147.43715286 585.94173346 147.43715286 587.8125 149.125 C587.8125 149.785 587.8125 150.445 587.8125 151.125 C588.740625 151.49625 588.740625 151.49625 589.6875 151.875 C592.27525992 153.39721172 592.86842658 154.29277975 593.8125 157.125 C594.51626871 162.52056009 592.91209866 164.80324416 589.8125 169.125 C587.97630946 171.51128465 586.08782264 173.85210834 584.1875 176.1875 C581.03241413 180.08527455 577.89358211 183.98723447 574.875 187.9921875 C574.4207666 188.59409912 573.9665332 189.19601074 573.49853516 189.81616211 C572.63873203 190.9614455 571.78404209 192.11058931 570.93505859 193.26391602 C569.94020992 194.58682639 568.88197519 195.8616558 567.8125 197.125 C567.1525 197.125 566.4925 197.125 565.8125 197.125 C565.5959375 197.8159375 565.379375 198.506875 565.15625 199.21875 C563.45363371 202.90115267 560.99575068 205.63756669 558.3125 208.625 C554.23952034 213.25636709 550.33138636 217.94519641 546.625 222.875 C535.24385671 237.90932165 535.24385671 237.90932165 528.8125 241.125 C532.1125 243.765 535.4125 246.405 538.8125 249.125 C539.039375 248.114375 539.26625 247.10375 539.5 246.0625 C540.74647876 241.6684382 542.93434173 238.65074387 545.8125 235.125 C546.4725 235.125 547.1325 235.125 547.8125 235.125 C548.02519531 234.43921875 548.23789062 233.7534375 548.45703125 233.046875 C550.22799941 229.22934134 552.71176135 226.49349191 555.5 223.375 C556.59914194 222.119789 557.69680629 220.86328254 558.79296875 219.60546875 C559.31938965 219.0026709 559.84581055 218.39987305 560.38818359 217.77880859 C562.67233494 215.12662463 564.79637696 212.36436209 566.91796875 209.58203125 C569.94488755 205.65639842 573.06839618 201.80814623 576.17724609 197.94726562 C578.74094253 194.75251785 581.27230598 191.54048386 583.73828125 188.26953125 C584.19420654 187.66592773 584.65013184 187.06232422 585.11987305 186.44042969 C585.98241481 185.29293111 586.83958013 184.14136661 587.69067383 182.98535156 C588.68521674 181.66264086 589.74324666 180.38808214 590.8125 179.125 C591.4725 179.125 592.1325 179.125 592.8125 179.125 C593.4725 177.475 594.1325 175.825 594.8125 174.125 C595.4725 174.125 596.1325 174.125 596.8125 174.125 C597.06 173.50625 597.3075 172.8875 597.5625 172.25 C599.08471172 169.66224008 599.98027975 169.06907342 602.8125 168.125 C609.41628907 167.26363621 612.85748816 170.63476456 617.91796875 174.4921875 C619.44357422 175.73355469 619.44357422 175.73355469 621 177 C622.02480469 177.82242188 623.04960938 178.64484375 624.10546875 179.4921875 C627.77031462 183.05655419 629.69790463 186.17687869 630 191.3125 C628.18663069 197.1343699 624.53309617 201.3637252 620.8125 206.125 C619.21776857 208.33469322 617.62757939 210.54755694 616.0390625 212.76171875 C615.63429688 213.21160156 615.22953125 213.66148437 614.8125 214.125 C614.1525 214.125 613.4925 214.125 612.8125 214.125 C612.45671875 214.92164063 612.45671875 214.92164063 612.09375 215.734375 C610.43871616 218.82242595 608.40701872 221.5778472 606.3125 224.375 C605.90902344 224.92929688 605.50554688 225.48359375 605.08984375 226.0546875 C604.04799829 227.45069165 602.93504588 228.79302392 601.8125 230.125 C601.1525 230.125 600.4925 230.125 599.8125 230.125 C599.565 230.8571875 599.3175 231.589375 599.0625 232.34375 C597.68672649 235.40484606 596.12931914 237.20888861 593.8125 239.625 C590.23322378 243.48579232 586.92954973 247.43763009 583.75 251.625 C583.33057129 252.17269043 582.91114258 252.72038086 582.47900391 253.28466797 C580.513631 255.8580614 578.58071676 258.44566893 576.68359375 261.0703125 C572.51640187 266.66462488 569.64921935 269.41582016 562.8125 271.125 C563.35777344 271.64707031 563.90304687 272.16914063 564.46484375 272.70703125 C570.40066437 278.50079804 575.6847502 284.61137187 580.8125 291.125 C581.616875 292.135625 582.42125 293.14625 583.25 294.1875 C611.92927565 330.55847073 631.44561459 373.56885946 640.5 418.9375 C640.70262451 419.93168945 640.90524902 420.92587891 641.11401367 421.95019531 C644.29090698 438.61264949 645.15086879 455.42592092 645.07324219 472.35449219 C645.06250166 475.12457134 645.07323528 477.8940024 645.0859375 480.6640625 C645.10198905 498.4036638 643.70112527 515.80824536 640.0625 533.1875 C639.79937012 534.4647998 639.53624023 535.74209961 639.26513672 537.05810547 C635.68286906 553.9922677 630.44496826 569.82234351 623.78125 585.77734375 C622.76095522 588.24991294 621.7823754 590.73686889 620.8046875 593.2265625 C619.07955842 597.54902046 617.16842585 601.72621917 615.0625 605.875 C614.71670898 606.55836426 614.37091797 607.24172852 614.01464844 607.94580078 C604.74056819 626.10298691 593.73654769 643.33796986 580.8125 659.125 C580.35359375 659.68687012 579.8946875 660.24874023 579.421875 660.82763672 C567.0392248 675.84409659 553.33722057 690.33439673 537.8125 702.125 C536.95785156 702.81207031 536.10320313 703.49914062 535.22265625 704.20703125 C529.08247041 709.125 529.08247041 709.125 526.8125 709.125 C526.8125 709.785 526.8125 710.445 526.8125 711.125 C523.6680052 713.71017034 520.20390113 715.87779628 516.8125 718.125 C515.97074219 718.68574219 515.12898437 719.24648438 514.26171875 719.82421875 C473.45813626 746.38679369 425.60938325 764.1829157 376.8125 767.125 C375.32672642 767.23305626 373.84104814 767.34243094 372.35546875 767.453125 C361.71140084 768.20656153 351.06191281 768.48865401 340.4029274 767.8963604 C319.68796783 766.76964519 298.95161134 767.01054884 278.21399951 767.05291152 C272.45136078 767.06350826 266.68871686 767.06804836 260.92607117 767.07324219 C250.96540555 767.08290048 241.00474912 767.09592262 231.04409027 767.11096573 C215.96325222 767.13345978 200.8824143 767.1464489 185.80156386 767.15721822 C179.73324486 767.16158486 173.66492604 767.1662222 167.59660721 767.17082024 C166.58578194 767.17158303 166.58578194 767.17158303 165.55453597 767.17236123 C149.56093235 767.18446052 133.56733111 767.19883538 117.57373047 767.21435547 C116.87502825 767.21503063 116.17632604 767.2157058 115.45645103 767.21640142 C99.13842331 767.23220901 82.82040026 767.25015687 66.50238037 767.27270508 C65.79930171 767.27367635 65.09622304 767.27464762 64.37183896 767.27564832 C58.70295757 767.28349678 53.03407628 767.29141788 47.36519502 767.29935859 C23.31615417 767.33298406 -0.73287647 767.35524376 -24.78193831 767.36659515 C-39.16170222 767.37381303 -53.54139277 767.39049508 -67.92112973 767.41939591 C-77.764794 767.43839134 -87.60842901 767.44648125 -97.45211145 767.44599093 C-103.12860904 767.44605394 -108.80499145 767.45102028 -114.48146248 767.46915817 C-119.68087634 767.4856748 -124.88010688 767.48825144 -130.07953855 767.47990941 C-131.95655158 767.47933706 -133.83357469 767.48381866 -135.71056035 767.49397077 C-150.04979014 767.56734456 -162.10309201 766.67250809 -174.1875 758.125 C-174.82429688 757.68414063 -175.46109375 757.24328125 -176.1171875 756.7890625 C-186.2911538 748.96641286 -191.9912364 735.82120776 -193.78194559 723.4324137 C-194.86831539 713.48964806 -194.48641812 703.37419845 -194.48616028 693.38835144 C-194.4933164 690.75023301 -194.50125136 688.11212721 -194.51012725 685.47401506 C-194.52780748 679.74957284 -194.53817799 674.02515415 -194.54366112 668.30068779 C-194.55182905 659.78743975 -194.57132224 651.27424333 -194.59294782 642.76102019 C-194.63340248 626.66734987 -194.6604811 610.57367393 -194.68338916 594.47997036 C-194.70115819 582.04579135 -194.72246347 569.6116229 -194.74625206 557.17745399 C-194.74965798 555.38925618 -194.75306257 553.60105837 -194.75646585 551.81286055 C-194.76159743 549.11795826 -194.76673002 546.42305597 -194.77186991 543.7281537 C-194.81955765 518.67635044 -194.8631764 493.62454272 -194.89835072 468.57271862 C-194.90034044 467.15664366 -194.90034044 467.15664366 -194.90237036 465.71196112 C-194.90908027 460.92748492 -194.91575111 456.14300867 -194.92240671 451.35853239 C-194.92372856 450.40837722 -194.92505041 449.45822205 -194.92641232 448.47927429 C-194.92908479 446.55782802 -194.93175535 444.63638174 -194.934424 442.71493546 C-194.97601396 412.83865291 -195.03093959 382.96242106 -195.09643555 353.08618164 C-195.17005833 319.4923135 -195.23349073 285.89844807 -195.2820732 252.30453378 C-195.28729402 248.71786228 -195.29254949 245.13119084 -195.29782677 241.54451942 C-195.29911919 240.66144262 -195.3004116 239.77836582 -195.30174319 238.86852912 C-195.32141194 225.5709209 -195.34898432 212.27334418 -195.38062477 198.97575951 C-195.41663447 183.837353 -195.44192732 168.69897135 -195.45320032 153.56052532 C-195.45981092 145.10267521 -195.47466003 136.64493797 -195.50178096 128.18712822 C-195.51910128 122.51921441 -195.52513951 116.8513569 -195.52246332 111.18341755 C-195.52124735 107.96599352 -195.52619125 104.748808 -195.54155228 101.53141501 C-195.67758493 71.63165517 -194.53501764 35.11242453 -172.1875 12.125 C-165.99918398 6.48420988 -158.75855875 2.05517085 -150.25 1.5625 C-142.36475029 1.95370619 -136.31635435 5.56322264 -130.9375 11.1875 C-124.32470702 19.26095006 -120.85438518 28.79374018 -117.29199219 38.46728516 C-113.29710766 49.30268952 -108.63588424 58.76815344 -97.8125 64.1875 C-90.38742297 67.12680635 -84.31707824 67.35332803 -76.9375 64.1875 C-67.73587705 58.974687 -65.11119283 50.05378029 -62.33984375 40.40234375 C-61.36209988 36.85201817 -60.47993418 33.28300195 -59.62280273 29.7019043 C-56.67824229 17.41677646 -52.341513 7.18928662 -41.07421875 0.19140625 C-27.84173387 -6.54601279 -13.02054446 -7.6591438 0 0 Z M67.8125 304.125 C67.8125 304.455 67.8125 304.785 67.8125 305.125 C70.4525 305.125 73.0925 305.125 75.8125 305.125 C75.8125 304.795 75.8125 304.465 75.8125 304.125 C73.1725 304.125 70.5325 304.125 67.8125 304.125 Z M88.8125 304.125 C88.8125 304.455 88.8125 304.785 88.8125 305.125 C91.4525 305.125 94.0925 305.125 96.8125 305.125 C96.8125 304.795 96.8125 304.465 96.8125 304.125 C94.1725 304.125 91.5325 304.125 88.8125 304.125 Z M60.8125 305.125 C60.8125 305.455 60.8125 305.785 60.8125 306.125 C62.4625 306.125 64.1125 306.125 65.8125 306.125 C65.8125 305.795 65.8125 305.465 65.8125 305.125 C64.1625 305.125 62.5125 305.125 60.8125 305.125 Z M98.8125 305.125 C98.8125 305.455 98.8125 305.785 98.8125 306.125 C100.4625 306.125 102.1125 306.125 103.8125 306.125 C103.8125 305.795 103.8125 305.465 103.8125 305.125 C102.1625 305.125 100.5125 305.125 98.8125 305.125 Z M104.8125 306.125 C108.8125 307.125 108.8125 307.125 108.8125 307.125 Z M-4.1875 337.125 C-4.5175 337.785 -4.8475 338.445 -5.1875 339.125 C-4.5275 339.125 -3.8675 339.125 -3.1875 339.125 C-3.5175 338.465 -3.8475 337.805 -4.1875 337.125 Z M-10.1875 343.125 C-11.1775 344.61 -11.1775 344.61 -12.1875 346.125 C-11.1975 345.795 -10.2075 345.465 -9.1875 345.125 C-9.5175 344.465 -9.8475 343.805 -10.1875 343.125 Z M-13.1875 346.125 C-13.1875 349.125 -13.1875 349.125 -13.1875 349.125 Z M-16.1875 350.125 C-16.1875 353.125 -16.1875 353.125 -16.1875 353.125 Z M-22.1875 358.125 C-22.1875 361.125 -22.1875 361.125 -22.1875 361.125 Z M-25.1875 362.125 C-24.1875 364.125 -24.1875 364.125 -24.1875 364.125 Z M-27.1875 366.125 C-26.1875 368.125 -26.1875 368.125 -26.1875 368.125 Z M-29.1875 369.125 C-28.1875 371.125 -28.1875 371.125 -28.1875 371.125 Z M-30.1875 371.125 C-29.1875 373.125 -29.1875 373.125 -29.1875 373.125 Z M-32.1875 375.125 C-31.1875 377.125 -31.1875 377.125 -31.1875 377.125 Z M-33.1875 377.125 C-32.1875 379.125 -32.1875 379.125 -32.1875 379.125 Z M-35.1875 382.125 C-34.1875 384.125 -34.1875 384.125 -34.1875 384.125 Z M-36.1875 384.125 C-35.1875 386.125 -35.1875 386.125 -35.1875 386.125 Z M-37.1875 387.125 C-36.1875 389.125 -36.1875 389.125 -36.1875 389.125 Z M-39.1875 393.125 C-38.1875 396.125 -38.1875 396.125 -38.1875 396.125 Z M-40.1875 396.125 C-39.1875 399.125 -39.1875 399.125 -39.1875 399.125 Z M-41.1875 400.125 C-40.1875 402.125 -40.1875 402.125 -40.1875 402.125 Z M-42.1875 404.125 C-41.1875 407.125 -41.1875 407.125 -41.1875 407.125 Z M-43.1875 411.125 C-42.1875 415.125 -42.1875 415.125 -42.1875 415.125 Z M-44.1875 419.125 C-44.1875 421.105 -44.1875 423.085 -44.1875 425.125 C-43.8575 425.125 -43.5275 425.125 -43.1875 425.125 C-43.1875 423.145 -43.1875 421.165 -43.1875 419.125 C-43.5175 419.125 -43.8475 419.125 -44.1875 419.125 Z M-44.1875 440.125 C-43.1875 442.125 -43.1875 442.125 -43.1875 442.125 Z " fill="#818689" transform="translate(206.1875,29.875)"/>
<path d="M0 0 C7.74006103 5.84804611 12.88082492 12.53404805 15.375 21.875 C15.58060547 22.60162842 15.78621094 23.32825684 15.99804688 24.0769043 C17.53009273 29.64835742 18.6925389 35.27144804 19.8125 40.9375 C21.77987075 50.80319794 24.19849308 61.05485072 31.8125 68.125 C36.67521132 70.87747811 41.27445391 72.15718063 46.8125 71.125 C53.25938615 68.9957532 57.23058229 66.43016681 60.67211914 60.56005859 C62.85688426 55.89492322 63.85117539 50.9506117 64.9375 45.9375 C65.194104 44.82342773 65.45070801 43.70935547 65.71508789 42.56152344 C66.74411919 38.07251801 67.74126895 33.58089009 68.61328125 29.05859375 C71.18065161 16.22174195 77.33513402 4.67591875 88.1640625 -2.89453125 C93.209046 -5.89522049 99.15946294 -5.37845114 104.8125 -4.875 C107.88887977 -4.01527097 110.22917895 -2.7379178 112.8125 -0.875 C113.39386719 -0.45863281 113.97523438 -0.04226562 114.57421875 0.38671875 C122.71603866 7.35758029 126.46686342 19.14379456 130.77734375 28.66796875 C131.29917236 29.81483154 131.82100098 30.96169434 132.35864258 32.14331055 C133.39106859 34.42001185 134.41347987 36.70128809 135.42456055 38.98754883 C140.34969971 49.93101554 140.34969971 49.93101554 148.8125 58.125 C152.91821432 58.76366667 154.39604907 58.42471436 157.80859375 55.96875 C160.76474518 53.3792034 162.38083803 50.76766982 164.0625 47.1875 C164.34279053 46.60339355 164.62308105 46.01928711 164.91186523 45.41748047 C166.76775438 41.50903852 168.51496567 37.55235916 170.26953125 33.59765625 C170.70040039 32.6327124 171.13126953 31.66776855 171.57519531 30.67358398 C172.42254363 28.76768689 173.25965886 26.85719715 174.08496094 24.94165039 C176.69852681 19.0292285 179.77628883 14.15653408 183.8125 9.125 C184.39 8.25875 184.9675 7.3925 185.5625 6.5 C191.40598461 0.33187736 199.6967904 -3.82588545 208.1875 -4.1875 C216.82577295 -3.89907686 221.87530966 -0.39112541 228.3203125 5.1875 C235.49090176 13.63935442 238.44210675 23.53904264 241.3125 34.0625 C246.45296644 53.66396507 246.45296644 53.66396507 259.8125 68.125 C264.83233889 70.48125091 269.72157322 71.10920216 275.08203125 69.40234375 C282.53958035 66.34759312 286.73800721 62.27399476 289.9362793 54.90063477 C291.6484959 49.47678675 291.60876958 43.83502695 291.8125 38.1875 C292.19478471 27.62407392 292.78802853 18.23985111 300.1875 10.125 C305.83357309 5.07325039 311.40796858 4.66659765 318.78515625 4.8125 C329.43228295 5.91155824 338.10007034 13.60710594 344.80078125 21.453125 C358.64540558 39.84093673 363.77555167 61.47568215 364.48046875 84.13671875 C364.52119003 85.41374664 364.56191132 86.69077454 364.60386658 88.00650024 C365.09123998 105.7376134 364.46128555 123.47268739 363.95404053 141.19702148 C363.82015414 145.94497397 363.6967259 150.69319899 363.57226562 155.44140625 C363.32891061 164.66955611 363.07450096 173.89736193 362.8125 183.125 C361.86665543 183.14645584 360.92081085 183.16791168 359.94630432 183.1900177 C356.35351498 183.27328159 352.76098777 183.36526095 349.16847229 183.45954895 C347.6292426 183.49880233 346.08995487 183.5358566 344.5506134 183.57044983 C299.85366214 184.58323856 256.02544282 195.55362555 216.76196289 217.08251953 C214.7962993 218.13366337 212.80771854 219.11986756 210.8046875 220.09765625 C206.71640732 222.1251044 202.85669538 224.44006861 199 226.875 C198.30422852 227.31255615 197.60845703 227.7501123 196.89160156 228.20092773 C191.01103127 231.93366387 185.37568463 235.93412236 179.8125 240.125 C178.82636719 240.84429687 177.84023438 241.56359375 176.82421875 242.3046875 C170.96785632 246.60580247 165.44294866 251.09358623 160.1015625 256.01953125 C158.08338734 257.87583912 156.02657267 259.66221808 153.9375 261.4375 C145.63483164 268.67917828 137.85835525 276.66029975 130.8125 285.125 C130.09449219 285.97707031 129.37648438 286.82914062 128.63671875 287.70703125 C124.22202514 293.01208324 120.0913668 298.41272637 116.22265625 304.12890625 C114.8125 306.125 114.8125 306.125 112.8125 308.125 C107.47916667 308.45833333 107.47916667 308.45833333 104.8125 307.125 C102.82428687 306.72735737 100.81970923 306.41174418 98.8125 306.125 C98.16925781 306.03089844 97.52601563 305.93679688 96.86328125 305.83984375 C90.89267814 305.1000308 84.94539007 305.01872678 78.9375 305 C78.10452393 304.99540771 77.27154785 304.99081543 76.41333008 304.98608398 C75.61950928 304.98809814 74.82568848 304.9901123 74.0078125 304.9921875 C73.29641113 304.99331543 72.58500977 304.99444336 71.85205078 304.99560547 C69.72892333 305.13030233 67.8612863 305.56809264 65.8125 306.125 C64.41914183 306.29284238 63.02287404 306.43773529 61.625 306.5625 C52.76291642 307.47882025 52.76291642 307.47882025 44.8125 311.125 C43.14749557 311.46653937 41.48071323 311.79949498 39.8125 312.125 C38.46272151 312.75770867 37.12897119 313.42562468 35.8125 314.125 C33.32619712 315.1450217 30.82877969 316.11889512 28.3125 317.0625 C25.75351722 318.08212959 25.75351722 318.08212959 23.3125 319.625 C20.8125 321.125 20.8125 321.125 18.125 322.1875 C15.6697058 323.00803421 15.6697058 323.00803421 13.8125 325.125 C13.131875 325.455 12.45125 325.785 11.75 326.125 C9.64384399 326.97089942 9.64384399 326.97089942 8.8125 329.125 C7.8225 329.455 6.8325 329.785 5.8125 330.125 C5.1525 330.785 4.4925 331.445 3.8125 332.125 C-1.34417311 336.4422147 -1.34417311 336.4422147 -3.890625 338.50390625 C-10.62603958 344.07124217 -16.26033795 350.2706759 -20.1875 358.125 C-20.8475 358.723125 -21.5075 359.32125 -22.1875 359.9375 C-24.37734118 361.95419894 -24.37734118 361.95419894 -24.6875 364.625 C-25.33165527 367.84577635 -26.90257064 368.84007064 -29.1875 371.125 C-29.57249891 372.78049531 -29.91543135 374.4472433 -30.1875 376.125 C-30.8475 376.455 -31.5075 376.785 -32.1875 377.125 C-32.3525 378.115 -32.5175 379.105 -32.6875 380.125 C-32.8525 381.115 -33.0175 382.105 -33.1875 383.125 C-33.8475 383.455 -34.5075 383.785 -35.1875 384.125 C-35.1875 385.115 -35.1875 386.105 -35.1875 387.125 C-35.8475 387.125 -36.5075 387.125 -37.1875 387.125 C-36.8575 388.115 -36.5275 389.105 -36.1875 390.125 C-36.5175 391.115 -36.8475 392.105 -37.1875 393.125 C-37.8475 393.125 -38.5075 393.125 -39.1875 393.125 C-39.14625 394.383125 -39.105 395.64125 -39.0625 396.9375 C-38.9484626 400.41564073 -39.12824319 401.03611478 -41.1875 404.125 C-41.64728656 406.69367176 -41.64728656 406.69367176 -41.8125 409.5 C-41.88726562 410.43585938 -41.96203125 411.37171875 -42.0390625 412.3359375 C-42.17761209 414.93921134 -42.21593219 417.51871593 -42.1875 420.125 C-42.5175 420.125 -42.8475 420.125 -43.1875 420.125 C-43.21643932 423.74998334 -43.23427792 427.37493713 -43.25 431 C-43.25837891 432.03253906 -43.26675781 433.06507813 -43.27539062 434.12890625 C-43.27861328 435.11503906 -43.28183594 436.10117187 -43.28515625 437.1171875 C-43.29039307 438.02839355 -43.29562988 438.93959961 -43.30102539 439.87841797 C-43.33635565 442.16187509 -43.33635565 442.16187509 -42.1875 444.125 C-42.01267492 445.87535715 -41.84187676 447.62624152 -41.69482422 449.37915039 C-38.69907123 482.95185588 -19.71103804 510.54045304 4.73828125 532.57421875 C9.75043169 536.73296619 15.12770531 539.97101995 20.8125 543.125 C21.4115918 543.46273437 22.01068359 543.80046875 22.62792969 544.1484375 C38.32168395 552.8955064 54.92865807 557.67630889 72.8125 559.125 C72.98918213 559.66447266 73.16586426 560.20394531 73.34790039 560.75976562 C83.183135 590.55690754 96.4712628 618.62130886 114.8125 644.125 C115.45703125 645.04539062 116.1015625 645.96578125 116.765625 646.9140625 C127.01971913 661.37817089 139.05591823 675.89513733 152.8125 687.125 C154.48474076 688.78607387 156.15072089 690.45346007 157.8125 692.125 C165.09132766 699.10141219 172.46248712 705.45375491 180.8125 711.125 C181.58867676 711.65561035 182.36485352 712.1862207 183.16455078 712.73291016 C185.87476143 714.58062038 188.5921586 716.41724078 191.3125 718.25 C192.17866943 718.83628174 193.04483887 719.42256348 193.93725586 720.02661133 C200.04759158 724.1045775 206.32824732 727.67937177 212.8125 731.125 C214.02004681 731.79491113 215.22605224 732.4676174 216.4296875 733.14453125 C235.16715333 743.45687755 254.94341651 751.04074745 275.57958984 756.52685547 C277.59489741 757.06670934 279.60449009 757.62778859 281.61328125 758.19140625 C291.40841774 760.8289562 301.24689109 762.36765288 311.29296875 763.73071289 C312.3809375 763.88403076 313.46890625 764.03734863 314.58984375 764.1953125 C315.57202881 764.32695801 316.55421387 764.45860352 317.56616211 764.59423828 C318.30745361 764.76938965 319.04874512 764.94454102 319.8125 765.125 C320.1425 765.785 320.4725 766.445 320.8125 767.125 C275.88752045 767.176367 230.96253762 767.2241273 186.03753662 767.25202942 C185.37238745 767.25244359 184.70723828 767.25285776 184.02193307 767.25328448 C169.56564578 767.26226369 155.10935818 767.27057417 140.65307011 767.27819599 C133.56347245 767.28193792 126.47387488 767.28582759 119.38427734 767.28979492 C118.67878586 767.2901872 117.97329437 767.29057948 117.24642436 767.29098364 C94.38893393 767.3037624 71.53146579 767.32629239 48.67398885 767.35389166 C25.18042885 767.38220738 1.68688117 767.40066049 -21.8066956 767.40674497 C-36.94337435 767.41068606 -52.07998772 767.42326286 -67.21664593 767.4487494 C-77.13903597 767.46460546 -87.06139293 767.46940064 -96.98379472 767.46550413 C-102.70872852 767.46358241 -108.4335505 767.46653148 -114.15846443 767.48261642 C-119.40325025 767.49724462 -124.64784932 767.49793331 -129.89264384 767.48769668 C-131.78652287 767.486432 -133.68041368 767.49021266 -135.57426962 767.49964955 C-149.9614713 767.56715059 -162.06085396 766.70238378 -174.1875 758.125 C-174.82429688 757.68414063 -175.46109375 757.24328125 -176.1171875 756.7890625 C-186.2911538 748.96641286 -191.9912364 735.82120776 -193.78194559 723.4324137 C-194.86831539 713.48964806 -194.48641812 703.37419845 -194.48616028 693.38835144 C-194.4933164 690.75023301 -194.50125136 688.11212721 -194.51012725 685.47401506 C-194.52780748 679.74957284 -194.53817799 674.02515415 -194.54366112 668.30068779 C-194.55182905 659.78743975 -194.57132224 651.27424333 -194.59294782 642.76102019 C-194.63340248 626.66734987 -194.6604811 610.57367393 -194.68338916 594.47997036 C-194.70115819 582.04579135 -194.72246347 569.6116229 -194.74625206 557.17745399 C-194.74965798 555.38925618 -194.75306257 553.60105837 -194.75646585 551.81286055 C-194.76159743 549.11795826 -194.76673002 546.42305597 -194.77186991 543.7281537 C-194.81955765 518.67635044 -194.8631764 493.62454272 -194.89835072 468.57271862 C-194.90034044 467.15664366 -194.90034044 467.15664366 -194.90237036 465.71196112 C-194.90908027 460.92748492 -194.91575111 456.14300867 -194.92240671 451.35853239 C-194.92372856 450.40837722 -194.92505041 449.45822205 -194.92641232 448.47927429 C-194.92908479 446.55782802 -194.93175535 444.63638174 -194.934424 442.71493546 C-194.97601396 412.83865291 -195.03093959 382.96242106 -195.09643555 353.08618164 C-195.17005833 319.4923135 -195.23349073 285.89844807 -195.2820732 252.30453378 C-195.28729402 248.71786228 -195.29254949 245.13119084 -195.29782677 241.54451942 C-195.29911919 240.66144262 -195.3004116 239.77836582 -195.30174319 238.86852912 C-195.32141194 225.5709209 -195.34898432 212.27334418 -195.38062477 198.97575951 C-195.41663447 183.837353 -195.44192732 168.69897135 -195.45320032 153.56052532 C-195.45981092 145.10267521 -195.47466003 136.64493797 -195.50178096 128.18712822 C-195.51910128 122.51921441 -195.52513951 116.8513569 -195.52246332 111.18341755 C-195.52124735 107.96599352 -195.52619125 104.748808 -195.54155228 101.53141501 C-195.67758493 71.63165517 -194.53501764 35.11242453 -172.1875 12.125 C-165.99918398 6.48420988 -158.75855875 2.05517085 -150.25 1.5625 C-142.36475029 1.95370619 -136.31635435 5.56322264 -130.9375 11.1875 C-124.32470702 19.26095006 -120.85438518 28.79374018 -117.29199219 38.46728516 C-113.29710766 49.30268952 -108.63588424 58.76815344 -97.8125 64.1875 C-90.38742297 67.12680635 -84.31707824 67.35332803 -76.9375 64.1875 C-67.73587705 58.974687 -65.11119283 50.05378029 -62.33984375 40.40234375 C-61.36209988 36.85201817 -60.47993418 33.28300195 -59.62280273 29.7019043 C-56.67824229 17.41677646 -52.341513 7.18928662 -41.07421875 0.19140625 C-27.84173387 -6.54601279 -13.02054446 -7.6591438 0 0 Z " fill="#E3E5E7" transform="translate(206.1875,29.875)"/>
<path d="M0 0 C1.10983749 0.00373123 1.10983749 0.00373123 2.24209595 0.00753784 C24.47532693 0.12237429 44.69460928 2.97671228 65.75 10.3125 C66.9565625 10.71339844 68.163125 11.11429687 69.40625 11.52734375 C96.50420947 21.14164503 121.23194221 39.44592185 140.75 60.3125 C140.75 60.9725 140.75 61.6325 140.75 62.3125 C141.74 62.6425 142.73 62.9725 143.75 63.3125 C145.39485068 65.17409093 146.89167668 67.0162128 148.375 69 C149.03097168 69.86588745 149.03097168 69.86588745 149.70019531 70.74926758 C154.40448633 77.04681073 158.61965603 83.62942905 162.75 90.3125 C163.61818359 91.71048828 163.61818359 91.71048828 164.50390625 93.13671875 C169.44398581 101.22161086 173.45887484 109.42646208 176.75 118.3125 C176.97977539 118.92851074 177.20955078 119.54452148 177.44628906 120.17919922 C181.92167342 132.34209191 184.76131374 144.5153039 186.75 157.3125 C186.86859375 158.06466797 186.9871875 158.81683594 187.109375 159.59179688 C192.02426561 192.15294719 188.22037178 227.11870746 174.75 257.3125 C174.24726562 258.46105469 173.74453125 259.60960937 173.2265625 260.79296875 C164.08489106 281.27708438 150.98456214 300.78019627 134.75 316.3125 C133.6053125 317.488125 133.6053125 317.488125 132.4375 318.6875 C111.51765438 339.12083759 85.2852345 355.97717136 56.75 363.3125 C55.30686183 363.71460635 53.86420274 364.11843383 52.421875 364.5234375 C50.78152525 364.97495949 49.14089627 365.42546819 47.5 365.875 C46.74976563 366.08535889 45.99953125 366.29571777 45.2265625 366.51245117 C32.14772201 370.01076391 19.34382431 370.63675137 5.89086914 370.57324219 C3.18808642 370.56250233 0.48596607 370.57320825 -2.21679688 370.5859375 C-11.74316365 370.59456314 -20.87880771 370.2148926 -30.25 368.3125 C-31.20511475 368.12494141 -32.16022949 367.93738281 -33.14428711 367.74414062 C-35.91771151 367.1768981 -38.6772506 366.56546171 -41.4375 365.9375 C-42.7977832 365.64359375 -42.7977832 365.64359375 -44.18554688 365.34375 C-50.50304525 363.9167811 -56.29232632 361.82743282 -62.25 359.3125 C-63.78981888 358.72430641 -65.33127344 358.14036001 -66.875 357.5625 C-91.61597912 347.61950054 -116.27615725 331.92687082 -133.51171875 311.359375 C-135.4974293 309.02114504 -137.59282793 306.80347795 -139.6875 304.5625 C-144.52234315 299.19500464 -148.4045964 293.41316018 -152.25 287.3125 C-152.90871094 286.30445313 -153.56742187 285.29640625 -154.24609375 284.2578125 C-161.83776111 272.38935787 -167.80077531 259.67886828 -172.25 246.3125 C-172.65992188 245.15363281 -173.06984375 243.99476563 -173.4921875 242.80078125 C-176.42647519 234.42642425 -178.76494756 226.08189725 -180.25 217.3125 C-180.43691406 216.44496094 -180.62382812 215.57742188 -180.81640625 214.68359375 C-181.15640135 212.14008609 -181.22284345 210.69428913 -180.25 208.3125 C-177.78917032 206.1946108 -175.2347782 204.69967412 -172.3984375 203.12109375 C-148.03057369 189.12317695 -129.86524134 160.72615272 -122.66308594 134.14648438 C-116.41847657 109.73862036 -114.61212525 81.53111613 -124.32666016 57.66772461 C-125.53870628 54.5760776 -125.52819436 53.39520404 -124.25 50.3125 C-122.63460304 48.68018789 -120.94435962 47.25537163 -119.13671875 45.83984375 C-117.20197791 44.34055662 -117.20197791 44.34055662 -115.5078125 42.484375 C-112.39965474 39.49452082 -108.96508452 37.0955741 -105.4375 34.625 C-104.68629883 34.09825684 -103.93509766 33.57151367 -103.16113281 33.02880859 C-80.60988465 17.37955161 -56.3167681 7.2018903 -29.25 2.3125 C-28.30930664 2.13517334 -27.36861328 1.95784668 -26.39941406 1.77514648 C-17.57864347 0.24627642 -8.92028324 -0.0480888 0 0 Z " fill="#EBE9E9" transform="translate(531.25,363.6875)"/>
<path d="M0 0 C3.04070913 2.71301366 5.69438598 5.72404707 8.32421875 8.83203125 C9.42394027 10.12451295 10.54902161 11.39619061 11.70703125 12.63671875 C22.69120479 24.49551033 29.34224014 37.92573936 35.0625 52.875 C35.3298999 53.54128418 35.5972998 54.20756836 35.87280273 54.89404297 C47.24546536 83.76779076 44.28763837 118.49889877 32.125 146.625 C31.44684101 148.04616187 30.75866219 149.46256986 30.0625 150.875 C29.63324219 151.80570313 29.20398438 152.73640625 28.76171875 153.6953125 C25.26495982 161.06583941 21.0871202 167.46078703 16.0625 173.875 C15.33804688 174.80441406 14.61359375 175.73382812 13.8671875 176.69140625 C-1.92976344 196.47887615 -21.89308929 209.96658763 -45.9375 217.875 C-46.93523437 218.23464844 -47.93296875 218.59429688 -48.9609375 218.96484375 C-49.98445312 219.32707031 -51.00796875 219.68929687 -52.0625 220.0625 C-53.42761719 220.54783203 -53.42761719 220.54783203 -54.8203125 221.04296875 C-75.00381475 226.43029454 -103.53269714 225.44898116 -122.9375 217.875 C-123.66227539 217.61267578 -124.38705078 217.35035156 -125.13378906 217.08007812 C-148.07642967 208.77171414 -168.07534941 194.2146769 -182.9375 174.875 C-183.61683594 174.02292969 -184.29617187 173.17085937 -184.99609375 172.29296875 C-190.43114131 165.22634746 -194.33318446 157.66521781 -198.109375 149.6328125 C-198.78643829 148.19564985 -199.48407115 146.76819341 -200.1875 145.34375 C-213.2513763 117.99125901 -212.48630195 80.81765813 -202.7109375 52.53125 C-200.06651402 45.33602769 -196.65085074 38.56994188 -192.9375 31.875 C-192.35226563 30.81410156 -191.76703125 29.75320313 -191.1640625 28.66015625 C-188.30148203 23.682059 -188.30148203 23.682059 -186.9375 21.875 C-186.2775 21.875 -185.6175 21.875 -184.9375 21.875 C-184.82921875 21.29621094 -184.7209375 20.71742188 -184.609375 20.12109375 C-182.70144333 13.74283381 -176.29119946 6.77845104 -170.625 3.5625 C-170.068125 3.335625 -169.51125 3.10875 -168.9375 2.875 C-168.9375 2.215 -168.9375 1.555 -168.9375 0.875 C-167.03579137 -0.77879113 -165.13782408 -2.30414522 -163.125 -3.8125 C-162.53187012 -4.26020752 -161.93874023 -4.70791504 -161.32763672 -5.16918945 C-151.46947783 -12.53179567 -141.23851746 -18.30362597 -129.9375 -23.125 C-128.27074219 -23.84042969 -128.27074219 -23.84042969 -126.5703125 -24.5703125 C-83.28747061 -41.57792331 -34.77497814 -28.5015411 0 0 Z " fill="#818689" transform="translate(371.9375,366.125)"/>
<path d="M0 0 C0 50.49 0 100.98 0 153 C-6.30546742 153 -11.37599921 152.99474201 -17.38623047 152.24462891 C-50.88159458 149.10971812 -83.63446051 154.57472202 -114 169 C-115.04414063 169.48210937 -116.08828125 169.96421875 -117.1640625 170.4609375 C-128.8953572 176.06348193 -139.45766455 183.35926974 -149.671875 191.34765625 C-152 193 -152 193 -154 193 C-154.33 193.99 -154.66 194.98 -155 196 C-156.55859375 197.53515625 -156.55859375 197.53515625 -158.4375 199.0625 C-160.38553905 200.66078674 -162.21573944 202.21573944 -164 204 C-164.31453125 203.2265625 -164.6290625 202.453125 -164.953125 201.65625 C-172.60680446 183.02922288 -183.18350376 165.86176618 -199 153 C-199.78632813 152.30390625 -200.57265625 151.6078125 -201.3828125 150.890625 C-215.52253533 138.65026792 -232.33029564 131.60793808 -250 126 C-247.51590825 120.30120129 -243.89613331 115.81107656 -240 111 C-239.35160156 110.17628906 -238.70320313 109.35257812 -238.03515625 108.50390625 C-231.45887046 100.26211792 -224.28519618 92.61419117 -217 85 C-215.64648438 83.58267578 -215.64648438 83.58267578 -214.265625 82.13671875 C-208.53688177 76.27114248 -202.42035796 71.08976204 -196 66 C-195.23429687 65.36707031 -194.46859375 64.73414063 -193.6796875 64.08203125 C-176.30715417 49.80121995 -157.19737705 37.54325774 -136.88525391 27.90429688 C-135.08189041 27.03928025 -133.29623872 26.13762587 -131.51171875 25.234375 C-120.9315652 20.00902664 -109.88120326 16.41548844 -98.65039062 12.84423828 C-96.49697284 12.15830251 -94.34915239 11.45481267 -92.203125 10.74609375 C-62.14407001 1.01886149 -31.59185751 0 0 0 Z " fill="#B0B4B7" transform="translate(569,213)"/>
<path d="M0 0 C0.17015625 0.969375 0.3403125 1.93875 0.515625 2.9375 C6.8461335 38.26022486 20.17688173 75.22264503 46.76171875 100.6875 C48 102 48 102 48 104 C48.556875 104.226875 49.11375 104.45375 49.6875 104.6875 C53.27919962 106.72603222 55.83146488 109.72342514 58.60546875 112.75390625 C74.92896423 129.98232899 98.15723941 141.4487916 120 150 C120.79535156 150.33515625 121.59070313 150.6703125 122.41015625 151.015625 C128.7988085 153.56703604 135.37448779 155.14317111 142.0625 156.6875 C142.98466309 156.90212891 143.90682617 157.11675781 144.85693359 157.33789062 C145.76137207 157.53962891 146.66581055 157.74136719 147.59765625 157.94921875 C148.79660522 158.21738403 148.79660522 158.21738403 150.01977539 158.4909668 C157.47515787 159.76437324 164.9009949 160.15189073 172.453125 160.1328125 C173.7471524 160.13424759 173.7471524 160.13424759 175.06732178 160.13571167 C176.87902907 160.13638687 178.69073888 160.13457909 180.50244141 160.13037109 C183.22954947 160.12503998 185.95649088 160.13032518 188.68359375 160.13671875 C198.5053428 160.14006905 208.21262262 159.89925883 218 159 C218.67608638 179.29039231 217.40633641 195.45382409 203.04296875 211.1171875 C196.3291766 217.30465943 187.67796665 222.77279108 178.359375 223.08984375 C155.25657132 221.91051215 131.67337425 215.8654399 110 208 C108.64914307 207.51055908 108.64914307 207.51055908 107.27099609 207.01123047 C94.42838511 202.3010276 82.2263707 196.92530954 70.27783203 190.26123047 C68.65120877 189.36057283 67.01569161 188.47590201 65.37451172 187.60205078 C58.88812362 184.13784668 52.72174367 180.35856311 46.625 176.25 C45.71451904 175.63874268 44.80403809 175.02748535 43.8659668 174.39770508 C33.74997241 167.55292271 24.18534444 160.32954912 15.21875 152.0078125 C12.96262511 149.91153414 12.96262511 149.91153414 10.21875 147.8671875 C9.4865625 147.25101563 8.754375 146.63484375 8 146 C8 145.34 8 144.68 8 144 C7.45988281 143.78601563 6.91976562 143.57203125 6.36328125 143.3515625 C3.1496382 141.51367738 0.75058559 139.00348484 -1.8125 136.375 C-2.34657471 135.83302979 -2.88064941 135.29105957 -3.4309082 134.73266602 C-7.45334761 130.62351242 -11.32048575 126.42046907 -15 122 C-15.71800781 121.14792969 -16.43601562 120.29585937 -17.17578125 119.41796875 C-21.47881384 114.24709765 -25.53862856 108.99305543 -29.33203125 103.4375 C-30.41166495 101.85976832 -31.51211298 100.29599743 -32.63671875 98.75 C-45.62899887 80.82125914 -56.25963917 60.55677324 -64.24609375 39.93847656 C-64.97082478 38.07501661 -65.71931259 36.22084918 -66.46875 34.3671875 C-68.89769772 28.2806964 -70.6847492 22.41151374 -72 16 C-71.28046143 15.98018066 -70.56092285 15.96036133 -69.81958008 15.93994141 C-45.69909148 15.24102066 -26.14365001 12.71569036 -4.66015625 1.3203125 C-2 0 -2 0 0 0 Z " fill="#B0B4B7" transform="translate(351,573)"/>
<path d="M0 0 C3.11273596 0.00318201 6.22453706 -0.02049934 9.3371582 -0.0456543 C31.39333559 -0.11586734 53.96541294 2.41654994 71.10473633 17.81567383 C82.27546432 29.57552744 84.51537357 44.41176925 84.22583008 59.90942383 C83.69023957 72.83471172 77.48157959 84.73612859 68.08520508 93.61645508 C62.82417407 97.73996587 56.89215365 101.32821517 50.91723633 104.31567383 C51.48571289 104.65598633 52.05418945 104.99629883 52.63989258 105.34692383 C71.93096893 117.45618044 75.71641506 137.67462866 80.92651367 158.4050293 C82.46197391 164.49680296 84.09685514 170.56193242 85.72973633 176.62817383 C86.0075293 177.67585937 86.28532227 178.72354492 86.5715332 179.80297852 C86.83643555 180.79330078 87.10133789 181.78362305 87.37426758 182.80395508 C87.60090088 183.65513916 87.82753418 184.50632324 88.06103516 185.38330078 C89.23260326 189.39576286 90.59540337 193.35017494 91.91723633 197.31567383 C79.04723633 197.31567383 66.17723633 197.31567383 52.91723633 197.31567383 C46.05441279 176.7272032 46.05441279 176.7272032 44.31958008 169.15942383 C43.90638132 167.44062268 43.49296387 165.7218741 43.0793457 164.00317383 C42.4611625 161.39345023 41.84707177 158.78284565 41.23730469 156.17114258 C38.02729111 142.21002556 38.02729111 142.21002556 31.91723633 129.31567383 C31.36036133 128.38754883 30.80348633 127.45942383 30.22973633 126.50317383 C18.68098953 115.57868362 2.9092978 117.89229158 -12.08276367 117.31567383 C-12.08276367 143.71567383 -12.08276367 170.11567383 -12.08276367 197.31567383 C-23.96276367 197.31567383 -35.84276367 197.31567383 -48.08276367 197.31567383 C-48.08276367 133.62567383 -48.08276367 69.93567383 -48.08276367 4.31567383 C-42.50041597 2.72071734 -37.82583846 1.75613816 -32.15698242 1.21020508 C-31.29425217 1.12632034 -30.43152191 1.04243561 -29.54264832 0.95600891 C-19.70372753 0.08202635 -9.87209948 -0.02104261 0 0 Z M-12.08276367 29.31567383 C-12.08276367 49.44567383 -12.08276367 69.57567383 -12.08276367 90.31567383 C16.03730723 91.49491086 16.03730723 91.49491086 40.15942383 79.31567383 C46.48687349 72.11644221 48.30504004 64.92807852 48.19067383 55.55004883 C47.52142599 47.63380297 44.80242689 41.06369548 38.83520508 35.74536133 C28.99968381 28.4137915 18.61049874 28.01139448 6.72973633 28.12817383 C5.47225586 28.12881836 4.21477539 28.12946289 2.91918945 28.13012695 C-2.30665051 28.15515759 -6.93424562 28.28597022 -12.08276367 29.31567383 Z " fill="#307C42" transform="translate(1359.082763671875,204.684326171875)"/>
<path d="M0 0 C3.11273596 0.00318201 6.22453706 -0.02049934 9.3371582 -0.0456543 C31.39333559 -0.11586734 53.96541294 2.41654994 71.10473633 17.81567383 C82.27546432 29.57552744 84.51537357 44.41176925 84.22583008 59.90942383 C83.69023957 72.83471172 77.48157959 84.73612859 68.08520508 93.61645508 C62.82417407 97.73996587 56.89215365 101.32821517 50.91723633 104.31567383 C51.48571289 104.65598633 52.05418945 104.99629883 52.63989258 105.34692383 C71.93096893 117.45618044 75.71641506 137.67462866 80.92651367 158.4050293 C82.46197391 164.49680296 84.09685514 170.56193242 85.72973633 176.62817383 C86.0075293 177.67585937 86.28532227 178.72354492 86.5715332 179.80297852 C86.83643555 180.79330078 87.10133789 181.78362305 87.37426758 182.80395508 C87.60090088 183.65513916 87.82753418 184.50632324 88.06103516 185.38330078 C89.23260326 189.39576286 90.59540337 193.35017494 91.91723633 197.31567383 C79.04723633 197.31567383 66.17723633 197.31567383 52.91723633 197.31567383 C46.05441279 176.7272032 46.05441279 176.7272032 44.31958008 169.15942383 C43.90638132 167.44062268 43.49296387 165.7218741 43.0793457 164.00317383 C42.4611625 161.39345023 41.84707177 158.78284565 41.23730469 156.17114258 C38.02729111 142.21002556 38.02729111 142.21002556 31.91723633 129.31567383 C31.36036133 128.38754883 30.80348633 127.45942383 30.22973633 126.50317383 C18.68098953 115.57868362 2.9092978 117.89229158 -12.08276367 117.31567383 C-12.08276367 143.71567383 -12.08276367 170.11567383 -12.08276367 197.31567383 C-23.96276367 197.31567383 -35.84276367 197.31567383 -48.08276367 197.31567383 C-48.08276367 133.62567383 -48.08276367 69.93567383 -48.08276367 4.31567383 C-42.50041597 2.72071734 -37.82583846 1.75613816 -32.15698242 1.21020508 C-31.29425217 1.12632034 -30.43152191 1.04243561 -29.54264832 0.95600891 C-19.70372753 0.08202635 -9.87209948 -0.02104261 0 0 Z M-12.08276367 29.31567383 C-12.08276367 49.44567383 -12.08276367 69.57567383 -12.08276367 90.31567383 C16.03730723 91.49491086 16.03730723 91.49491086 40.15942383 79.31567383 C46.48687349 72.11644221 48.30504004 64.92807852 48.19067383 55.55004883 C47.52142599 47.63380297 44.80242689 41.06369548 38.83520508 35.74536133 C28.99968381 28.4137915 18.61049874 28.01139448 6.72973633 28.12817383 C5.47225586 28.12881836 4.21477539 28.12946289 2.91918945 28.13012695 C-2.30665051 28.15515759 -6.93424562 28.28597022 -12.08276367 29.31567383 Z " fill="#307C42" transform="translate(1193.082763671875,204.684326171875)"/>
<path d="M0 0 C49.17 0 98.34 0 149 0 C149 9.9 149 19.8 149 30 C130.19 30 111.38 30 92 30 C92 84.78 92 139.56 92 196 C80.12 196 68.24 196 56 196 C56 141.22 56 86.44 56 30 C37.52 30 19.04 30 0 30 C0 20.1 0 10.2 0 0 Z " fill="#2D7A3F" transform="translate(974,206)"/>
<path d="M0 0 C10.1694923 10.62026767 11.73154759 21.91187298 11.52734375 35.86328125 C11.16724907 45.50342795 7.55729148 52.72967678 1.25 59.875 C0.68667969 60.54273438 0.12335938 61.21046875 -0.45703125 61.8984375 C-5.95124902 67.93629366 -12.50115378 71.33897745 -19.75 74.875 C-18.71101563 75.2875 -17.67203125 75.7 -16.6015625 76.125 C-2.30377707 81.96909961 8.50487481 89.30148693 15.59765625 103.58984375 C21.45200815 117.54376495 20.62309038 133.08531905 14.99609375 146.96875 C8.61355665 160.74250854 -1.75754732 169.83133685 -15.65625 175.74609375 C-38.13494355 183.94854632 -65.51218638 184.65064539 -87.75097656 175.00732422 C-91.82989791 173.1085834 -95.80486102 171.03905158 -99.75 168.875 C-98.37820313 161.39247162 -95.82836721 154.81895046 -92.75 147.875 C-91.74066406 148.27912109 -91.74066406 148.27912109 -90.7109375 148.69140625 C-89.73382812 149.08199219 -88.75671875 149.47257813 -87.75 149.875 C-86.03683594 150.56916016 -86.03683594 150.56916016 -84.2890625 151.27734375 C-66.77911112 158.22028743 -49.17821565 161.93032571 -30.75 155.875 C-27.5985241 154.41197907 -24.69566611 152.7077245 -21.75 150.875 C-21.05003906 150.57722656 -20.35007812 150.27945313 -19.62890625 149.97265625 C-17.26018322 148.58884924 -16.8152241 147.36817537 -15.75 144.875 C-15.3478125 144.24722656 -14.945625 143.61945313 -14.53125 142.97265625 C-9.55265163 135.06457773 -7.96543728 126.37310364 -9.3125 117.125 C-11.55986598 107.44728025 -16.57459096 100.51406226 -24.75 94.875 C-35.80562346 89.14353205 -46.48048285 87.54032793 -58.75 86.75 C-60.62751953 86.62044922 -60.62751953 86.62044922 -62.54296875 86.48828125 C-65.61154676 86.27746291 -68.6807211 86.07535571 -71.75 85.875 C-71.75 79.275 -71.75 72.675 -71.75 65.875 C-70.16832031 65.84921875 -68.58664062 65.8234375 -66.95703125 65.796875 C-51.5840455 65.43270746 -37.35080779 64.83260037 -24.75 54.875 C-19.02064368 48.81212605 -15.89727627 42.31393047 -15.75 33.875 C-16.3325313 27.08958906 -18.07593884 20.96404789 -22.75 15.875 C-32.03806028 8.56795957 -42.17191954 6.81266741 -53.75 7.875 C-63.63842819 9.55835118 -72.13546247 12.64601378 -80.95703125 17.38671875 C-83.75 18.875 -83.75 18.875 -86.75 19.875 C-87.78411477 17.12935036 -88.80251157 14.3795139 -89.8125 11.625 C-90.10705078 10.84769531 -90.40160156 10.07039063 -90.70507812 9.26953125 C-90.97900391 8.51542969 -91.25292969 7.76132813 -91.53515625 6.984375 C-91.79176025 6.29311523 -92.04836426 5.60185547 -92.31274414 4.88964844 C-92.82890999 2.51142364 -92.59584994 1.14274507 -91.75 -1.125 C-68.52609609 -21.30399207 -21.97085716 -20.18253157 0 0 Z " fill="#347F46" transform="translate(1627.75,224.125)"/>
<path d="M0 0 C30.36 0 60.72 0 92 0 C92 7.26 92 14.52 92 22 C67.91 22 43.82 22 19 22 C18.67 26.29 18.34 30.58 18 35 C17.63686534 37.91576225 17.25541891 40.80583077 16.80859375 43.70703125 C16.69902847 44.44330246 16.5894632 45.17957367 16.47657776 45.93815613 C16.13450355 48.23027172 15.7861544 50.52137717 15.4375 52.8125 C15.20074987 54.39121281 14.96441916 55.96998859 14.72851562 57.54882812 C14.15716204 61.36662632 13.58018962 65.18353506 13 69 C13.76441406 68.97905273 14.52882813 68.95810547 15.31640625 68.93652344 C38.51735386 68.38511704 60.07755774 69.70796478 78.5625 85.3125 C89.34326772 95.85772154 95.04272162 109.07042924 95.24194336 124.00830078 C95.29211874 143.02933061 91.80118097 157.70165822 78.1640625 171.86328125 C77.44992187 172.56839844 76.73578125 173.27351562 76 174 C75.47148438 174.55042969 74.94296875 175.10085938 74.3984375 175.66796875 C61.09355537 188.39289448 40.91951442 193.37080604 23 193 C6.29113171 192.28277809 -8.21122385 189.12570118 -23 181 C-21.55613874 173.78069368 -19.42211826 166.94889267 -17 160 C-15.58460937 160.59748047 -15.58460937 160.59748047 -14.140625 161.20703125 C4.9685823 169.1443941 24.75812068 173.95595131 44.73046875 165.8984375 C54.22093023 161.44754029 60.68349438 155.68931624 65 146 C68.87611837 133.8360358 68.87261697 123.50542699 63.5625 111.859375 C57.96251559 101.61140353 49.83269173 96.47195098 38.84375 93.00390625 C22.08096056 88.58039237 5.11574319 89.89064627 -12 91 C-11.31508787 81.13223622 -10.06740449 71.36035349 -8.75 61.5625 C-8.5294311 59.90774033 -8.30905703 58.25295468 -8.08886719 56.59814453 C-7.63012987 53.15550811 -7.16935531 49.71315263 -6.70703125 46.27099609 C-6.11500048 41.86218883 -5.5276966 37.45276719 -4.9418335 33.0431366 C-4.48887061 29.63715828 -4.03366756 26.23148235 -3.57775879 22.82589722 C-3.36023308 21.19929503 -3.14334893 19.57260691 -2.92712402 17.9458313 C-2.62553405 15.6797259 -2.3209848 13.41403757 -2.015625 11.1484375 C-1.84321289 9.86114746 -1.67080078 8.57385742 -1.49316406 7.24755859 C-1 4 -1 4 0 0 Z " fill="#337E44" transform="translate(1850,213)"/>
<path d="M0 0 C30.36 0 60.72 0 92 0 C92 7.26 92 14.52 92 22 C67.91 22 43.82 22 19 22 C18.67 26.29 18.34 30.58 18 35 C17.63686534 37.91576225 17.25541891 40.80583077 16.80859375 43.70703125 C16.69902847 44.44330246 16.5894632 45.17957367 16.47657776 45.93815613 C16.13450355 48.23027172 15.7861544 50.52137717 15.4375 52.8125 C15.20074987 54.39121281 14.96441916 55.96998859 14.72851562 57.54882812 C14.15716204 61.36662632 13.58018962 65.18353506 13 69 C13.76441406 68.97905273 14.52882813 68.95810547 15.31640625 68.93652344 C38.51735386 68.38511704 60.07755774 69.70796478 78.5625 85.3125 C89.34326772 95.85772154 95.04272162 109.07042924 95.24194336 124.00830078 C95.29211874 143.02933061 91.80118097 157.70165822 78.1640625 171.86328125 C77.44992187 172.56839844 76.73578125 173.27351562 76 174 C75.47148438 174.55042969 74.94296875 175.10085938 74.3984375 175.66796875 C61.09355537 188.39289448 40.91951442 193.37080604 23 193 C6.29113171 192.28277809 -8.21122385 189.12570118 -23 181 C-21.55613874 173.78069368 -19.42211826 166.94889267 -17 160 C-15.58460937 160.59748047 -15.58460937 160.59748047 -14.140625 161.20703125 C4.9685823 169.1443941 24.75812068 173.95595131 44.73046875 165.8984375 C54.22093023 161.44754029 60.68349438 155.68931624 65 146 C68.87611837 133.8360358 68.87261697 123.50542699 63.5625 111.859375 C57.96251559 101.61140353 49.83269173 96.47195098 38.84375 93.00390625 C22.08096056 88.58039237 5.11574319 89.89064627 -12 91 C-11.31508787 81.13223622 -10.06740449 71.36035349 -8.75 61.5625 C-8.5294311 59.90774033 -8.30905703 58.25295468 -8.08886719 56.59814453 C-7.63012987 53.15550811 -7.16935531 49.71315263 -6.70703125 46.27099609 C-6.11500048 41.86218883 -5.5276966 37.45276719 -4.9418335 33.0431366 C-4.48887061 29.63715828 -4.03366756 26.23148235 -3.57775879 22.82589722 C-3.36023308 21.19929503 -3.14334893 19.57260691 -2.92712402 17.9458313 C-2.62553405 15.6797259 -2.3209848 13.41403757 -2.015625 11.1484375 C-1.84321289 9.86114746 -1.67080078 8.57385742 -1.49316406 7.24755859 C-1 4 -1 4 0 0 Z " fill="#337E44" transform="translate(1701,213)"/>
<path d="M0 0 C3.59983077 2.33048746 6.25703145 5.14874343 9.09375 8.35546875 C9.75375 5.38546875 10.41375 2.41546875 11.09375 -0.64453125 C15.71375 -0.64453125 20.33375 -0.64453125 25.09375 -0.64453125 C25.14889944 15.2287023 25.04467733 31.10066635 24.85803032 46.97273254 C24.81309607 50.8138336 24.77377954 54.65481722 24.74731445 58.49609375 C24.72109412 62.28005152 24.68063817 66.0636211 24.63056374 69.84733582 C24.61411031 71.26640508 24.60246415 72.68554001 24.59613609 74.10469055 C24.53133838 87.26058597 23.26441745 100.38963817 14.12109375 110.546875 C2.77556603 121.41216874 -10.20444175 121.81470849 -25.11328125 121.640625 C-34.12567244 121.35046712 -41.36773493 119.89398382 -47.90625 113.35546875 C-46.58625 109.72546875 -45.26625 106.09546875 -43.90625 102.35546875 C-41.79036458 103.07161458 -39.67447917 103.78776042 -37.55859375 104.50390625 C-36.68332031 104.78492188 -35.80804687 105.0659375 -34.90625 105.35546875 C-33.83117188 105.70996094 -32.75609375 106.06445312 -31.6484375 106.4296875 C-23.02709588 108.56252462 -12.29217294 109.04646359 -4.09375 105.29296875 C2.19416907 101.46177538 5.21574086 96.37722858 7.09375 89.35546875 C7.31587504 86.55648633 7.28469929 83.78584989 7.21875 80.98046875 C7.20972656 80.24441406 7.20070313 79.50835938 7.19140625 78.75 C7.16805144 76.95167995 7.13218836 75.15352964 7.09375 73.35546875 C6.32804687 74.13535156 5.56234375 74.91523437 4.7734375 75.71875 C-1.99359444 82.37727268 -8.80048624 84.63101507 -18.21875 84.73046875 C-29.00006304 84.54989503 -37.24097741 81.00602872 -44.90625 73.35546875 C-53.88951787 61.99133479 -56.05905462 48.41683865 -54.90625 34.35546875 C-53.160724 22.18006425 -47.7488568 10.98392147 -37.90625 3.35546875 C-26.64458415 -3.35467687 -12.27293946 -5.82124012 0 0 Z M-31.15625 17.41796875 C-37.32714151 25.28711651 -39.41641312 35.49559684 -38.6875 45.296875 C-37.53836034 53.94857069 -35.1289769 62.04612667 -28.28125 67.85546875 C-22.9816848 71.37517997 -16.96424337 72.70469365 -10.63671875 72.16015625 C-3.18221986 70.59228842 1.73488174 66.40945245 6.09375 60.35546875 C8.72681616 53.78600887 8.46154381 47.46326912 8.46875 40.48046875 C8.50548828 38.61841797 8.50548828 38.61841797 8.54296875 36.71875 C8.56944055 28.4330751 7.94936984 22.7353176 2.3125 16.33203125 C1.7453125 15.88601563 1.178125 15.44 0.59375 14.98046875 C0.0265625 14.51898437 -0.540625 14.0575 -1.125 13.58203125 C-10.77977422 6.9337876 -23.24739545 9.25398986 -31.15625 17.41796875 Z " fill="#88AC8E" transform="translate(1217.90625,588.64453125)"/>
<path d="M0 0 C2.23181918 -0.00436708 4.46164467 -0.04077925 6.69311523 -0.07861328 C18.87058615 -0.17305935 31.10254181 1.24652327 40.23413086 10.12060547 C47.39560178 17.71206119 49.00280453 24.63287776 48.99389648 34.86376953 C48.69438934 42.81463942 46.07319437 49.35619055 40.68725586 55.29638672 C39.00323804 56.8078771 37.30703393 58.10471584 35.43334961 59.37060547 C34.84682617 59.78052734 34.26030273 60.19044922 33.65600586 60.61279297 C32.26734038 61.56035295 30.8530943 62.47027956 29.43334961 63.37060547 C30.0250293 63.82048828 30.61670898 64.27037109 31.22631836 64.73388672 C32.01651367 65.37712891 32.80670898 66.02037109 33.62084961 66.68310547 C34.3981543 67.29798828 35.17545898 67.91287109 35.97631836 68.54638672 C42.75172687 76.33433641 44.78614357 86.68093772 47.05834961 96.49560547 C48.89184981 104.25081576 50.7667966 111.85577426 53.43334961 119.37060547 C47.82334961 119.37060547 42.21334961 119.37060547 36.43334961 119.37060547 C34.07222203 114.64835031 32.74793966 111.2825608 31.56616211 106.28466797 C31.23452136 104.92780163 30.90247746 103.57103378 30.57006836 102.21435547 C30.06237649 100.10721391 29.5591958 97.99920911 29.0637207 95.88916016 C26.46017253 84.36678857 26.46017253 84.36678857 20.43334961 74.37060547 C10.77268626 68.93960833 10.77268626 68.93960833 -8.56665039 68.37060547 C-8.56665039 85.20060547 -8.56665039 102.03060547 -8.56665039 119.37060547 C-13.84665039 119.37060547 -19.12665039 119.37060547 -24.56665039 119.37060547 C-24.56665039 80.76060547 -24.56665039 42.15060547 -24.56665039 2.37060547 C-16.05667546 0.66861048 -8.54864464 -0.00186631 0 0 Z M-8.56665039 13.37060547 C-8.56665039 27.56060547 -8.56665039 41.75060547 -8.56665039 56.37060547 C10.52268297 57.00331074 10.52268297 57.00331074 26.37084961 50.62060547 C31.74785285 44.75478375 33.10995682 39.19380923 32.82006836 31.27685547 C32.08212184 25.73107557 30.0465214 21.98377726 26.12084961 18.05810547 C15.18126494 11.18906393 3.82962389 11.59970914 -8.56665039 13.37060547 Z " fill="#87AB8D" transform="translate(1011.566650390625,553.62939453125)"/>
<path d="M0 0 C416.13 0 832.26 0 1261 0 C1261 0.99 1261 1.98 1261 3 C844.87 3 428.74 3 0 3 C0 2.01 0 1.02 0 0 Z " fill="#545454" transform="translate(973,453)"/>
<path d="M0 0 C0.87769043 0.00902344 1.75538086 0.01804687 2.65966797 0.02734375 C14.42117786 0.34092594 22.7039007 4.14959911 31.125 12.4375 C40.9799422 23.62762791 42.23960901 37.83210573 41.34814453 52.11230469 C40.31773172 62.84934143 35.78884684 72.05322147 27.98828125 79.46875 C16.18129845 89.19457178 3.93537607 90.59841585 -10.875 89.4375 C-21.82234583 87.24552572 -30.43721813 80.3815939 -36.875 71.4375 C-43.81079588 59.2944555 -44.69357179 44.56112802 -41.75 31.0625 C-40.06990091 25.22970317 -37.33745323 20.39147155 -33.875 15.4375 C-33.1325 14.365 -32.39 13.2925 -31.625 12.1875 C-22.96628232 3.52878232 -12.03849151 -0.14865203 0 0 Z M-20.37109375 22.109375 C-26.95793595 32.30614889 -27.86696522 43.97015593 -25.6015625 55.64453125 C-23.70934149 62.91839157 -20.0036668 69.69229874 -13.6484375 73.91796875 C-7.210776 77.47562379 -1.92741682 78.65193414 5.25390625 76.92578125 C12.67412096 74.48992329 16.70601031 70.66351716 20.375 63.875 C25.78136034 52.22287074 26.30596297 40.80153958 22.15234375 28.57421875 C18.97482414 21.47596307 14.2113209 16.48066045 7.25 13 C-3.97050064 10.98030989 -13.04633577 12.93218403 -20.37109375 22.109375 Z " fill="#88AC8D" transform="translate(1581.875,585.5625)"/>
<path d="M0 0 C7.3786278 5.53047056 11.67621662 14.88846024 13.87109375 23.66796875 C13.87109375 29.60796875 13.87109375 35.54796875 13.87109375 41.66796875 C-5.59890625 41.99796875 -25.06890625 42.32796875 -45.12890625 42.66796875 C-42.68158293 56.97051736 -42.68158293 56.97051736 -33.2265625 66.44140625 C-22.4342897 72.75197172 -9.39676167 70.94294479 2.2421875 68.0859375 C3.7962908 67.65128889 5.33663457 67.16756011 6.87109375 66.66796875 C7.86109375 70.62796875 8.85109375 74.58796875 9.87109375 78.66796875 C-4.02758433 85.28638689 -21.23001572 86.80354466 -35.94140625 81.98046875 C-46.31871431 77.78731229 -53.54956892 70.78222379 -57.94140625 60.54296875 C-63.44613871 46.82567428 -62.80390813 30.24932 -57.12890625 16.66796875 C-55.41967001 13.37264009 -53.49473855 10.52406991 -51.12890625 7.66796875 C-50.60425781 7.03246094 -50.07960938 6.39695312 -49.5390625 5.7421875 C-37.16017792 -7.86002214 -15.18726116 -9.50248818 0 0 Z M-38.87109375 13.79296875 C-42.67473662 19.17994621 -45.12890625 23.96405232 -45.12890625 30.66796875 C-30.60890625 30.66796875 -16.08890625 30.66796875 -1.12890625 30.66796875 C-2.06585887 22.2353952 -2.9355988 16.18539658 -8.74609375 9.92578125 C-13.89705266 6.01282105 -19.49595502 5.93326245 -25.78515625 6.1953125 C-31.73726337 7.03667344 -35.09551699 9.18778096 -38.87109375 13.79296875 Z " fill="#87AB8D" transform="translate(2071.12890625,591.33203125)"/>
<path d="M0 0 C7.3786278 5.53047056 11.67621662 14.88846024 13.87109375 23.66796875 C13.87109375 29.60796875 13.87109375 35.54796875 13.87109375 41.66796875 C-5.59890625 41.99796875 -25.06890625 42.32796875 -45.12890625 42.66796875 C-42.68158293 56.97051736 -42.68158293 56.97051736 -33.2265625 66.44140625 C-22.4342897 72.75197172 -9.39676167 70.94294479 2.2421875 68.0859375 C3.7962908 67.65128889 5.33663457 67.16756011 6.87109375 66.66796875 C7.86109375 70.62796875 8.85109375 74.58796875 9.87109375 78.66796875 C-4.02758433 85.28638689 -21.23001572 86.80354466 -35.94140625 81.98046875 C-46.31871431 77.78731229 -53.54956892 70.78222379 -57.94140625 60.54296875 C-63.44613871 46.82567428 -62.80390813 30.24932 -57.12890625 16.66796875 C-55.41967001 13.37264009 -53.49473855 10.52406991 -51.12890625 7.66796875 C-50.60425781 7.03246094 -50.07960938 6.39695312 -49.5390625 5.7421875 C-37.16017792 -7.86002214 -15.18726116 -9.50248818 0 0 Z M-38.87109375 13.79296875 C-42.67473662 19.17994621 -45.12890625 23.96405232 -45.12890625 30.66796875 C-30.60890625 30.66796875 -16.08890625 30.66796875 -1.12890625 30.66796875 C-2.06585887 22.2353952 -2.9355988 16.18539658 -8.74609375 9.92578125 C-13.89705266 6.01282105 -19.49595502 5.93326245 -25.78515625 6.1953125 C-31.73726337 7.03667344 -35.09551699 9.18778096 -38.87109375 13.79296875 Z " fill="#87AB8D" transform="translate(1136.12890625,591.33203125)"/>
<path d="M0 0 C5.94 0 11.88 0 18 0 C22.5808804 11.6962402 27.06162862 23.42038753 31.3996582 35.20874023 C32.32652668 37.7255885 33.25790099 40.24074141 34.18945312 42.75585938 C34.78933247 44.38271298 35.38895179 46.00966249 35.98828125 47.63671875 C36.26223221 48.37532639 36.53618317 49.11393402 36.81843567 49.87492371 C38.4082175 54.2092371 39.78546727 58.54549575 41 63 C43.16421413 58.11466317 45.01280048 53.22137805 46.671875 48.14453125 C46.91538696 47.40843124 47.15889893 46.67233124 47.40979004 45.91392517 C47.92667181 44.35095013 48.44227033 42.78755021 48.95666504 41.22375488 C50.28728303 37.17948698 51.62778191 33.13850211 52.96875 29.09765625 C53.23085266 28.30741058 53.49295532 27.51716492 53.76300049 26.70297241 C56.73391914 17.76299569 59.8496404 8.87828614 63 0 C68.61 0 74.22 0 80 0 C79.08101759 4.59491206 77.72644865 8.72191473 76.078125 13.078125 C75.78191757 13.86952377 75.48571014 14.66092255 75.18052673 15.4763031 C74.20819119 18.06925566 73.22964038 20.65979912 72.25 23.25 C71.91497467 24.13837555 71.57994934 25.0267511 71.23477173 25.94204712 C68.83650802 32.29979522 66.42266203 38.65151248 64 45 C63.69310242 45.80491882 63.38620483 46.60983765 63.07000732 47.43914795 C38.75308729 111.14631282 38.75308729 111.14631282 16.39453125 122.0546875 C13.93745705 123.02469069 11.60102622 123.56572564 9 124 C6.77343836 119.25645564 5.53851968 115.27749285 5 110 C5.72445313 109.62488281 6.44890625 109.24976563 7.1953125 108.86328125 C17.85552698 103.22047439 26.18697876 96.40367216 31 85 C31.22187588 79.02953164 29.38977612 73.54910779 27.13256836 68.109375 C26.83981522 67.37814926 26.54706207 66.64692352 26.24543762 65.89353943 C25.2873994 63.50797316 24.3137582 61.12912332 23.33984375 58.75 C22.66763337 57.08415638 21.99647146 55.41788933 21.3263092 53.7512207 C19.5688287 49.38785178 17.79824066 45.02992653 16.0244751 40.67315674 C13.86296008 35.35742463 11.7161395 30.03574551 9.56807041 24.71456909 C7.89903249 20.58044797 6.2274976 16.44739909 4.54832458 12.31738281 C4.24193054 11.56215836 3.9355365 10.8069339 3.61985779 10.02882385 C3.04553447 8.61333366 2.46989185 7.19837782 1.89273071 5.78404236 C0 1.11268894 0 1.11268894 0 0 Z " fill="#88AC8D" transform="translate(1692,588)"/>
<path d="M0 0 C7.79505473 5.31195262 11.93319583 12.13898904 13.9375 21.3203125 C14.04228826 22.75097625 14.10254705 24.18534034 14.12695312 25.61962891 C14.14367065 26.46216217 14.16038818 27.30469543 14.1776123 28.17276001 C14.19118774 29.07996796 14.20476318 29.9871759 14.21875 30.921875 C14.23715942 31.87234711 14.25556885 32.82281921 14.27453613 33.80209351 C14.3331998 36.84977084 14.38589951 39.89750797 14.4375 42.9453125 C14.67721968 56.75943918 15.04718723 70.53126929 15.9375 84.3203125 C10.9875 84.3203125 6.0375 84.3203125 0.9375 84.3203125 C0.2775 81.6803125 -0.3825 79.0403125 -1.0625 76.3203125 C-2.01125 77.2278125 -2.96 78.1353125 -3.9375 79.0703125 C-11.80560271 85.67138476 -20.12623358 87.23398457 -30.2109375 86.765625 C-38.27740848 85.83299042 -43.83619738 82.41319713 -48.90625 76.1640625 C-53.43057011 68.94960611 -53.23676041 59.76604364 -51.48046875 51.62109375 C-48.69395994 44.33036522 -42.93653087 39.37464381 -36.16015625 35.78125 C-24.75133869 30.75960829 -14.37855799 30.02472711 -2.0625 30.3203125 C-3.10248477 20.15950692 -3.10248477 20.15950692 -9.0625 12.3203125 C-16.25241198 8.76229099 -24.96920372 9.44748391 -32.5 11.6953125 C-34.02651549 12.22075258 -35.5480909 12.76093617 -37.0625 13.3203125 C-38.25875 13.7121875 -39.455 14.1040625 -40.6875 14.5078125 C-41.47125 14.7759375 -42.255 15.0440625 -43.0625 15.3203125 C-43.5970256 14.07610603 -44.11458611 12.82460314 -44.625 11.5703125 C-44.91503906 10.87421875 -45.20507812 10.178125 -45.50390625 9.4609375 C-46.16644313 6.92198498 -46.14762714 5.71059257 -45.0625 3.3203125 C-43.2421875 2.125 -43.2421875 2.125 -40.9375 1.1953125 C-40.19242188 0.88335938 -39.44734375 0.57140625 -38.6796875 0.25 C-27.30943177 -3.78898636 -11.18293683 -5.71128559 0 0 Z M-33.375 50.8828125 C-36.324495 55.14319417 -36.57941331 59.27562146 -36.0625 64.3203125 C-34.75602364 68.09457754 -33.42709778 69.98239261 -30.5 72.6953125 C-24.61291367 75.47829877 -19.38418947 75.04346168 -13.25 73.1328125 C-8.07529005 70.19033037 -4.39250736 66.47406269 -1.77734375 61.0546875 C-0.11500991 54.69603345 -0.7959572 47.83580317 -1.0625 41.3203125 C-12.76979526 40.59197846 -25.2138369 41.8393615 -33.375 50.8828125 Z " fill="#87AC8D" transform="translate(1451.0625,588.6796875)"/>
<path d="M0 0 C5.28 0 10.56 0 16 0 C16.01458252 1.61374512 16.02916504 3.22749023 16.04418945 4.89013672 C16.10241191 10.91004967 16.17964357 16.92959794 16.26245117 22.94921875 C16.29558804 25.54844214 16.32365449 28.14773553 16.34643555 30.74707031 C16.38018798 34.49574458 16.43251586 38.24378371 16.48828125 41.9921875 C16.49467117 43.14363251 16.5010611 44.29507751 16.50764465 45.48141479 C16.65323379 53.5749262 17.29633473 61.81323942 22.3125 68.5 C25.90629949 71.8430693 28.43153043 72.97023297 33.359375 73.02734375 C40.49835182 72.60549512 45.35128921 70.86347112 50.3125 65.5 C54.23369734 59.69081875 55.0882818 54.44260114 55.20532227 47.45361328 C55.22526749 46.39296661 55.24521271 45.33231995 55.26576233 44.23953247 C55.28247482 43.11118988 55.29918732 41.98284729 55.31640625 40.8203125 C55.33718735 39.6524118 55.35796844 38.48451111 55.37937927 37.28121948 C55.44459175 33.56253762 55.50362801 29.84378711 55.5625 26.125 C55.60571213 23.59895133 55.64932728 21.07290951 55.69335938 18.546875 C55.80024412 12.36465311 55.90159102 6.18236238 56 0 C61.28 0 66.56 0 72 0 C72.33 28.05 72.66 56.1 73 85 C68.05 85 63.1 85 58 85 C57.01 80.05 57.01 80.05 56 75 C55.01 76.0725 54.02 77.145 53 78.25 C45.69041801 85.58929574 37.71134324 87.34877578 27.62158203 87.3828125 C19.05509003 87.20861567 13.18381133 84.53449712 7.125 78.4375 C-0.02814391 69.16169933 -0.57092848 58.56880607 -0.390625 47.265625 C-0.38314198 45.89272903 -0.37745883 44.5198222 -0.37347412 43.14691162 C-0.35837928 39.57602161 -0.31924335 36.00580791 -0.2746582 32.43518066 C-0.23335103 28.77458845 -0.21538838 25.11388432 -0.1953125 21.453125 C-0.15272802 14.30178414 -0.08251651 7.15100808 0 0 Z " fill="#86AB8C" transform="translate(1267,588)"/>
<path d="M0 0 C29.37 0 58.74 0 89 0 C89 4.29 89 8.58 89 13 C76.79 13 64.58 13 52 13 C52 47.65 52 82.3 52 118 C46.72 118 41.44 118 36 118 C36 83.35 36 48.7 36 13 C24.12 13 12.24 13 0 13 C0 8.71 0 4.42 0 0 Z " fill="#85AA8A" transform="translate(1802,555)"/>
<path d="M0 0 C0.92039062 -0.01160156 1.84078125 -0.02320313 2.7890625 -0.03515625 C9.04244608 -0.0087335 15.31235316 0.57067413 21 3.375 C22.16835309 6.88005927 21.75193262 8.03933282 20.6875 11.5 C20.42324219 12.38945313 20.15898438 13.27890625 19.88671875 14.1953125 C19 16.375 19 16.375 17 17.375 C15.783125 16.900625 14.56625 16.42625 13.3125 15.9375 C4.46127701 12.85384812 -6.24211574 12.88001812 -14.78125 16.921875 C-21.11175204 21.06790802 -25.58395443 26.74109876 -27.5390625 34.06640625 C-29.7300528 45.03992546 -29.32480227 55.75602988 -23 65.375 C-18.81214589 70.35515083 -13.49992293 74.1700232 -7 75.375 C2.13929004 75.98742665 10.25830763 75.0647515 19 72.375 C21.28571429 80.80357143 21.28571429 80.80357143 21 85.375 C8.48280487 90.25458454 -7.3816482 92.17287822 -20.375 87.75 C-31.95218889 82.46074118 -39.37052659 73.99957931 -44.0546875 62.3046875 C-48.00357763 50.06639163 -47.34941091 35.18630658 -41.640625 23.62109375 C-40.19367817 21.11877075 -38.65454837 18.74410911 -37 16.375 C-36.278125 15.323125 -35.55625 14.27125 -34.8125 13.1875 C-24.97521705 3.35021705 -13.61665124 -0.17163846 0 0 Z " fill="#88AC8E" transform="translate(1979,585.625)"/>
<path d="M0 0 C1.24305908 0.00700928 1.24305908 0.00700928 2.51123047 0.01416016 C8.99525832 0.16989838 14.99338473 1.11795195 20.6875 4.4375 C21.6875 6.4375 21.6875 6.4375 20.91015625 9.0390625 C20.33587891 10.53566406 20.33587891 10.53566406 19.75 12.0625 C19.17958984 13.56683594 19.17958984 13.56683594 18.59765625 15.1015625 C18.29730469 15.87242187 17.99695312 16.64328125 17.6875 17.4375 C16.4190625 17.004375 16.4190625 17.004375 15.125 16.5625 C13.990625 16.19125 12.85625 15.82 11.6875 15.4375 C10.594375 15.06625 9.50125 14.695 8.375 14.3125 C2.70129216 12.96619644 -2.09664267 12.73991528 -7.6875 14.5 C-11.20957138 17.09962412 -12.17324735 19.23650584 -13.3125 23.4375 C-12.72679022 27.17139987 -11.9558789 28.84695331 -9.171875 31.40234375 C-5.96915418 33.68187592 -2.64753285 35.2549712 0.9375 36.8125 C9.98247359 40.91365076 17.42004929 44.71328476 22.6875 53.4375 C24.87165515 59.98996546 25.0330619 69.61220591 22.125 76 C18.35496711 82.05569743 12.68335351 86.30826206 6.015625 88.7421875 C-6.97637628 91.45647885 -20.43194049 90.37777975 -32.3125 84.4375 C-31.83593588 82.64513933 -31.35616502 80.85363103 -30.875 79.0625 C-30.60816406 78.06476563 -30.34132813 77.06703125 -30.06640625 76.0390625 C-29.3125 73.4375 -29.3125 73.4375 -28.3125 71.4375 C-27.69375 71.705625 -27.075 71.97375 -26.4375 72.25 C-16.94465466 75.85728123 -7.79603739 78.48493286 2.25 75.3125 C5.37789699 72.90642539 6.47944986 71.20377396 7.6875 67.4375 C7.66567108 63.59561075 6.90296115 60.08388344 5.6875 56.4375 C3.85972572 55.28494349 3.85972572 55.28494349 1.6875 54.4375 C1.04474121 54.16736084 0.40198242 53.89722168 -0.26025391 53.61889648 C-0.92976074 53.35149658 -1.59926758 53.08409668 -2.2890625 52.80859375 C-12.55171798 48.58428822 -22.14117733 44.49375106 -28.03515625 34.5234375 C-30.4443919 28.70295994 -30.32120476 22.63845643 -28.43359375 16.6484375 C-25.12118006 9.41141486 -20.89865992 5.04244095 -13.6640625 1.8046875 C-9.09060077 0.16780862 -4.82480531 -0.05963792 0 0 Z " fill="#89AC8E" transform="translate(2213.3125,585.5625)"/>
<path d="M0 0 C0 8.25 0 16.5 0 25 C7.59 25 15.18 25 23 25 C23 28.96 23 32.92 23 37 C15.41 37 7.82 37 0 37 C0.09732815 43.51074077 0.20030404 50.02090262 0.31738281 56.53125 C0.35548484 58.74245907 0.39036921 60.95372617 0.421875 63.16503906 C0.46793585 66.35763175 0.52585998 69.54983139 0.5859375 72.7421875 C0.59748871 73.71864227 0.60903992 74.69509705 0.62094116 75.70114136 C0.48991879 86.3257726 0.48991879 86.3257726 4.44760132 95.71774292 C7.75694486 98.45120903 10.42288947 98.10369716 14.625 98.0625 C16.40777344 98.04896484 16.40777344 98.04896484 18.2265625 98.03515625 C19.59941406 98.01775391 19.59941406 98.01775391 21 98 C21.495 103.94 21.495 103.94 22 110 C17.35099613 112.32450193 14.3210438 112.36671398 9.25 112.375 C8.4765625 112.39949219 7.703125 112.42398438 6.90625 112.44921875 C0.0215058 112.4838735 -5.33782092 110.59022829 -10.3125 105.75 C-15.23828915 97.72278805 -15.40937988 90.7590369 -15.29296875 81.53125 C-15.28872391 80.25519897 -15.28447906 78.97914795 -15.28010559 77.66442871 C-15.26621934 74.29738106 -15.23933995 70.93096124 -15.20599365 67.56408691 C-15.17512035 64.11830017 -15.16156367 60.67244815 -15.14648438 57.2265625 C-15.11349893 50.48418143 -15.06175894 43.74217642 -15 37 C-19.62 37 -24.24 37 -29 37 C-29 33.04 -29 29.08 -29 25 C-24.38 25 -19.76 25 -15 25 C-15 18.07 -15 11.14 -15 4 C-12.710625 3.34 -10.42125 2.68 -8.0625 2 C-6.97980835 1.68675781 -6.97980835 1.68675781 -5.87524414 1.3671875 C-1.11111111 0 -1.11111111 0 0 0 Z " fill="#85AA8B" transform="translate(1507,563)"/>
<path d="M0 0 C4.02931018 2.98168953 7.5463251 6.37364136 11 10 C11.55429687 10.51304687 12.10859375 11.02609375 12.6796875 11.5546875 C15.04613727 13.92113727 16.7708925 15.78550781 17.40234375 19.1328125 C17.1266771 26.0124932 13.32899044 30.00665955 9 35 C7.93517339 36.312421 6.87570568 37.62919988 5.8203125 38.94921875 C-3.95809649 51.15831648 -3.95809649 51.15831648 -9 56 C-9.33 56.33 -9.66 56.66 -10 57 C-14.26153111 57.83708647 -17.71911203 57.76692666 -21.4921875 55.5078125 C-23.7309635 53.73881245 -25.86654753 51.89354617 -28 50 C-28.99 49.34 -29.98 48.68 -31 48 C-31 47.34 -31 46.68 -31 46 C-31.598125 45.7525 -32.19625 45.505 -32.8125 45.25 C-35.47957184 43.72595895 -36.56182071 42.73254065 -38 40 C-38.95738408 35.53220763 -38.80299813 33.36509682 -36.4765625 29.41015625 C-34.56469803 26.81954436 -32.58556938 24.30966732 -30.52441406 21.83642578 C-28.81192416 19.77342946 -27.13638113 17.68302413 -25.4609375 15.58984375 C-24.22535502 14.05876765 -22.9883802 12.52881411 -21.75 11 C-21.16009277 10.26982666 -20.57018555 9.53965332 -19.96240234 8.78735352 C-9.7417489 -3.63251654 -9.7417489 -3.63251654 0 0 Z " fill="#EAE8E8" transform="translate(714,255)"/>
<path d="M0 0 C4.20498921 0.8485744 6.98973579 3.70836517 10.16796875 6.4375 C11.95945785 7.81273134 13.7511286 9.18772609 15.54296875 10.5625 C18.64120011 12.95091984 20.78568134 14.73179333 22.16796875 18.4375 C22.81871563 24.29422188 21.56317779 26.75887861 18.16796875 31.4375 C16.61105995 33.37569259 15.02658199 35.29200033 13.41796875 37.1875 C9.50708892 41.81723817 5.69483196 46.50958952 1.95703125 51.28125 C-1.59015375 55.55645986 -3.7987721 58.18637157 -9.4375 58.8828125 C-14.95760251 58.80550363 -18.13002118 55.80008193 -22.14453125 52.3125 C-22.84642578 51.74273437 -23.54832031 51.17296875 -24.27148438 50.5859375 C-29.15455861 46.48955492 -32.37050464 42.93703675 -33.234375 36.38671875 C-32.74276896 32.78319873 -31.61643154 31.11291636 -29.39453125 28.25 C-28.66492188 27.29996094 -27.9353125 26.34992188 -27.18359375 25.37109375 C-24.15130064 21.58828291 -21.10576628 17.81915944 -18.0078125 14.08984375 C-15.36181873 10.86429659 -12.83988409 7.55426962 -10.33984375 4.21484375 C-7.32873656 0.66548165 -4.58035758 -0.13348947 0 0 Z " fill="#EAE8E8" transform="translate(744.83203125,284.5625)"/>
<path d="M0 0 C5.28 0 10.56 0 16 0 C16 40.92 16 81.84 16 124 C10.72 124 5.44 124 0 124 C0 83.08 0 42.16 0 0 Z " fill="#85AA8B" transform="translate(2145,549)"/>
<path d="M0 0 C5.28 0 10.56 0 16 0 C16 40.92 16 81.84 16 124 C10.72 124 5.44 124 0 124 C0 83.08 0 42.16 0 0 Z " fill="#85AA8B" transform="translate(2104,549)"/>
<path d="M0 0 C5.28 0 10.56 0 16 0 C16 40.92 16 81.84 16 124 C10.72 124 5.44 124 0 124 C0 83.08 0 42.16 0 0 Z " fill="#85AA8B" transform="translate(1363,549)"/>
<path d="M0 0 C0 5.28 0 10.56 0 16 C-1.485 15.9175 -2.97 15.835 -4.5 15.75 C-9.84307243 15.77267216 -13.71759747 16.74766311 -18 20 C-26.33141233 28.75540278 -26.119416 40.47042666 -26.31640625 51.84375 C-26.33718735 52.85344849 -26.35796844 53.86314697 -26.37937927 54.90344238 C-26.44432466 58.1022313 -26.50350185 61.30109642 -26.5625 64.5 C-26.60573764 66.67969511 -26.64935353 68.85938276 -26.69335938 71.0390625 C-26.79994902 76.35929859 -26.90136856 81.67961067 -27 87 C-32.28 87 -37.56 87 -43 87 C-43 58.95 -43 30.9 -43 2 C-38.38 2 -33.76 2 -29 2 C-28.67 6.29 -28.34 10.58 -28 15 C-27.505 14.154375 -27.01 13.30875 -26.5 12.4375 C-19.46622957 1.86172374 -12.10493702 -0.2631508 0 0 Z " fill="#88AC8D" transform="translate(1684,586)"/>
<path d="M0 0 C21.29773001 7.61168872 37.46883371 33.55038615 46.671875 52.90234375 C48 56 48 56 48 58 C48.99 58.495 48.99 58.495 50 59 C49.01 59.99 48.02 60.98 47 62 C46.68546875 61.2265625 46.3709375 60.453125 46.046875 59.65625 C38.40274327 41.05245953 27.82731144 23.82039562 12 11 C10.38562459 9.67140073 8.77449844 8.33899525 7.1652832 7.00415039 C6.06682378 6.0944308 4.96515424 5.1885716 3.86010742 4.28686523 C2.55516414 3.21303411 1.27498431 2.10923635 0 1 C0 0.67 0 0.34 0 0 Z " fill="#C5C7C9" transform="translate(358,355)"/>
<path d="M0 0 C0.66 0.33 1.32 0.66 2 1 C-1.63 4.63 -5.26 8.26 -9 12 C-9 7.8407692 -6.75316432 5.85455565 -4 3 C-1.6875 1.125 -1.6875 1.125 0 0 Z " fill="#A2BEA7" transform="translate(1557,592)"/>
<path d="M0 0 C0.66 0.33 1.32 0.66 2 1 C-1.3 4.3 -4.6 7.6 -8 11 C-8.66 10.67 -9.32 10.34 -10 10 C-3.84965831 2.51708428 -3.84965831 2.51708428 0 0 Z " fill="#A3BFA7" transform="translate(1951,593)"/>
</svg>
